# xmcd
#
# Track frame offsets:
#	180
#	10878
#	27147
#	37831
#	51067
#	62981
#	75153
#	87606
#	99219
#	126559
#	141167
#	153223
#	172861
#
# Disc length: 2433
#
# Revision: 2
# Processed by: cddbd v1.5.1PL0 Copyright (c) Steve Scherf et al.
# Submitted via: NeoAudio 9.9.9
# Normalized: r1:DSETVAR1,TDELIM( - )
#
DISCID=96097f0d
DTITLE=Various Artist - All Time Texas Blues Favorites (Vol 1.)
DYEAR=1995
DGENRE=Blues
TTITLE0=Albert Collins - The Freeze
TTITLE1=Lightning Hopkins - Mojo Hand
TTITLE2=Big Mama Thornton - All Right Baby
TTITLE3=Frankie Lee Sims - Single Man Blues
TTITLE4=Smokey Hogg - I Used To Be Rich
TTITLE5=Lester Williams - Wintertime Blues
TTITLE6=Goree Carter - Rock Awhile
TTITLE7=Johnny Clyde Copeland - Down On Bending Knees
TTITLE8=Billy Bizor - Screwdriver
TTITLE9=Percy Mayfield - Gone Astray
TTITLE10=Alger "Texas" Alexander - Crossroads Blues
TTITLE11=Peppermint Harris - Black Widow Spider
TTITLE12=Ivory Joe Hunter - I'm Coming Down With The Blues
EXTD=YEAR: 1995
EXTT0=
EXTT1=
EXTT2=
EXTT3=
EXTT4=
EXTT5=
EXTT6=
EXTT7=
EXTT8=
EXTT9=
EXTT10=
EXTT11=
EXTT12=
PLAYORDER=
